{"title":"Mercy 2014 HDRIP x264 AC3 TiTAN","uid":11241856,"size":797585888,"categoryP":"video","categoryS":"movies","magnet":"?xt=urn:btih:5c4b7153d8fce87c5ccfecc3f75b3cf12173cb8d&amp;dn=Mercy+2014+HDRIP+x264+AC3+TiTAN&amp;tr=udp%3A%2F%2Ftracker.openbittorrent.com%3A80&amp;tr=udp%3A%2F%2Fopen.demonii.com%3A1337&amp;tr=udp%3A%2F%2Ftracker.coppersurfer.tk%3A6969&amp;tr=udp%3A%2F%2Fexodus.desync.com%3A6969","seeders":13,"leechers":1,"uploader":"TvTeam","files":3,"time":1413684873,"description":" &lt;a href=&quot;http://www.torrenting.com&quot; rel=&quot;nofollow&quot; target=&quot;_NEW&quot;&gt;http://www.torrenting.com&lt;/a&gt;\n\nSign up is OPEN - for time being. Come and have fun.\n\n\n....[IMG]http://i.imgur.com/IJ4Ah6z.jpg[/IMG]\n &lt;a href=&quot;\nhttp://www.imdb.com/title/tt2481496/&quot; rel=&quot;nofollow&quot; target=&quot;_NEW&quot;&gt;\nhttp://www.imdb.com/title/tt2481496/&lt;/a&gt;\n\nSource: Own\n\nGeneral\n\nFormat                                   : Matroska\nFormat version                           : Version 2\nFile size                                : 761 MiB\nDuration                                 : 1h 18mn\nOverall bit rate mode                    : Variable\nOverall bit rate                         : 1 352 Kbps\nEncoded date                             : UTC 2014-10-18 23:38:36\n\nVideo\nID                                       : 1\nFormat                                   : AVC\nFormat/Info                              : Advanced Video Codec\nFormat profile                           : &lt;a class=&quot;__cf_email__&quot; href=&quot;/cdn-cgi/l/email-protection&quot; data-cfemail=&quot;9ad2f3fdf2dad6aeb4ab&quot;&gt;[email&amp;#160;protected]&lt;/a&gt;&lt;script cf-hash='f9e31' type=&quot;text/javascript&quot;&gt;\n/* &lt;![CDATA[ */!function(){try{var t=&quot;currentScript&quot;in document?document.currentScript:function(){for(var t=document.getElementsByTagName(&quot;script&quot;),e=t.length;e--;)if(t[e].getAttribute(&quot;cf-hash&quot;))return t[e]}();if(t&amp;&amp;t.previousSibling){var e,r,n,i,c=t.previousSibling,a=c.getAttribute(&quot;data-cfemail&quot;);if(a){for(e=&quot;&quot;,r=parseInt(a.substr(0,2),16),n=2;a.length-n;n+=2)i=parseInt(a.substr(n,2),16)^r,e+=String.fromCharCode(i);e=document.createTextNode(e),c.parentNode.replaceChild(e,c)}}}catch(u){}}();/* ]]&gt; */&lt;/script&gt;\nFormat settings, CABAC                   : Yes\nFormat settings, ReFrames                : 3 frames\nCodec ID                                 : V_MPEG4/ISO/AVC\nDuration                                 : 1h 18mn\nBit rate mode                            : Variable\nBit rate                                 : 941 Kbps\nMaximum bit rate                         : 40.0 Mbps\nWidth                                    : 720 pixels\nHeight                                   : 304 pixels\nDisplay aspect ratio                     : 2.35:1\nFrame rate mode                          : Constant\nFrame rate                               : 23.976 fps\nColor space                              : YUV\nChroma subsampling                       : 4:2:0\nBit depth                                : 8 bits\nScan type                                : Progressive\nBits/(Pixel*Frame)                       : 0.179\nStream size                              : 529 MiB (70%)\nDefault                                  : Yes\nForced                                   : No\nColor primaries                          : BT.709\nTransfer characteristics                 : BT.709\nMatrix coefficients                      : BT.709\n\nAudio\nID                                       : 2\nFormat                                   : AC-3\nFormat/Info                              : Audio Coding 3\nMode extension                           : CM (complete main)\nFormat settings, Endianness              : Big\nCodec ID                                 : A_AC3\nDuration                                 : 1h 18mn\nBit rate mode                            : Constant\nBit rate                                 : 384 Kbps\nChannel(s)                               : 6 channels\nChannel positions                        : Front: L C R, Side: L R, LFE\nSampling rate                            : 48.0 KHz\nBit depth                                : 16 bits\nCompression mode                         : Lossy\nStream size                              : 216 MiB (28%)\nLanguage                                 : English\nDefault                                  : Yes\nForced                                   : No\n\n\n[IMG]http://i.imgur.com/GpRqzyr.png[/IMG]\n[IMG]http://i.imgur.com/KWlNgPs.png[/IMG]\n[IMG]http://i.imgur.com/JLRNhuY.png[/IMG]\n[IMG]http://i.imgur.com/viTFVYv.png[/IMG]\n[IMG]http://i.imgur.com/viTFVYv.png[/IMG]\n[IMG]http://i.imgur.com/BXaLUnx.png[/IMG]\n[IMG]http://i.imgur.com/5JnY0U1.png[/IMG]","torrent":{"xt":"urn:btih:5c4b7153d8fce87c5ccfecc3f75b3cf12173cb8d","amp;dn":"Mercy+2014+HDRIP+x264+AC3+TiTAN","amp;tr":["udp%3A%2F%2Ftracker.openbittorrent.com%3A80","udp%3A%2F%2Fopen.demonii.com%3A1337","udp%3A%2F%2Ftracker.coppersurfer.tk%3A6969","udp%3A%2F%2Fexodus.desync.com%3A6969"],"infoHash":"5c4b7153d8fce87c5ccfecc3f75b3cf12173cb8d","infoHashBuffer":{"type":"Buffer","data":[92,75,113,83,216,252,232,124,92,207,236,195,247,91,60,241,33,115,203,141]},"announce":[],"urlList":[]}}